# xmcd
# 
# Track frame offsets:
#     150
#     20296
#     36464
#     60485
#     78828
#     102064
#     120099
#     138762
#     154251
#     173224
#     193340
#     211456
#     234990
#     253546
#     271089
#     318373
# 
# Disc length: 4491
# 
# Revision: 3
# Processed by: cddbd v1.5.2PL0 Copyright (c) Steve Scherf et al.
# Submitted via: fre:ac v1.0.27
# 
DISCID=ca118910
DTITLE=Various Artist - Motown: The Complete No. 1's
DYEAR=2008
DGENRE=R&B
TTITLE0=Smokey Robinson - Crusin'
TTITLE1=Jermaine Jackson - Let's Get Serious
TTITLE2=Diana Ross - I'm Coming Out
TTITLE3=Diana Ross - Upside Down
TTITLE4=Stevie Wonder - Master Blaster (Jammin')
TTITLE5=Smokey Robinson - Being With You
TTITLE6=Rick James - Give It To Me Baby
TTITLE7=Rick James - Super Freak
TTITLE8=Michael Jackson - One Day In Your Life
TTITLE9=Diana Ross And Lionel Richie - Endless Love
TTITLE10=The Commodores -  Lady (You Bring Me Up)
TTITLE11=Stevie Wonder - That Girl
TTITLE12=Dazz Band - Let It Whip
TTITLE13=Charlene - I've Never Been To Me
TTITLE14=Stevie Wonder - Do I Do
TTITLE15=Stevie Wonder - Lately
EXTD=
EXTT0=
EXTT1=
EXTT2=
EXTT3=
EXTT4=
EXTT5=
EXTT6=
EXTT7=
EXTT8=
EXTT9=
EXTT10=
EXTT11=
EXTT12=
EXTT13=
EXTT14=
EXTT15=
PLAYORDER=
